General
Complete name                  : D:DownloadsDance Nation - Sunshine.avi
Format                         : AVI
Format/Info                    : Audio Video Interleave
File size                      : 119 MiB
Duration                       : 3mn 30s
Overall bit rate               : 4 768 Kbps
Writing application            : Lavf50.6.0

Video
ID                             : 0
Format                         : xvid
Codec ID                       : xvid
Duration                       : 3mn 30s
Bit rate                       : 4 596 Kbps
Width                          : 1 000 pixels
Height                         : 760 pixels
Display aspect ratio           : 4:3
Frame rate                     : 25.000 fps
Bits/(Pixel*Frame)             : 0.242
Stream size                    : 115 MiB (96%)

Audio
ID                             : 1
Format                         : MPEG Audio
Format version                 : Version 1
Format profile                 : Layer 3
Mode                           : Joint stereo
Mode extension                 : MS Stereo
Codec ID                       : 55
Codec ID/Hint                  : MP3
Duration                       : 3mn 29s
Bit rate mode                  : Constant
Bit rate                       : 160 Kbps
Channel(s)                     : 2 channels
Sampling rate                  : 44.1 KHz
Compression mode               : Lossy
Stream size                    : 4.00 MiB (3%)
Alignment                      : Aligned on interleaves
Interleave, duration           : 26 ms (0.65 video frame)

